<?xml version="1.0" standalone="no"?>
<!DOCTYPE svg PUBLIC "-//W3C//DTD SVG 20010904//EN"
 "http://www.w3.org/TR/2001/REC-SVG-20010904/DTD/svg10.dtd">
<svg id="eye" version="1.0" xmlns="http://www.w3.org/2000/svg"
 viewBox="0 0 512.000000 512.000000"
 preserveAspectRatio="xMidYMid meet">

<g transform="translate(0.000000,512.000000) scale(0.100000,-0.100000)"
fill="#000000" stroke="none">
<path d="M1052 4143 c-75 -36 -112 -134 -78 -204 9 -19 124 -142 256 -274
l239 -239 -47 -26 c-90 -49 -1054 -735 -1076 -765 -14 -20 -21 -45 -21 -77 0
-83 19 -99 515 -448 250 -175 502 -347 558 -381 363 -216 844 -328 1285 -299
193 13 422 55 581 107 l48 15 287 -285 c242 -241 293 -287 329 -298 114 -33
226 79 193 193 -11 36 -54 84 -257 288 l-243 245 50 28 c72 40 998 693 1038
732 29 29 34 41 41 106 5 41 6 84 3 96 -3 16 -135 114 -437 327 -559 394 -576
405 -741 486 -332 165 -690 240 -1075 227 -237 -8 -411 -37 -628 -103 l-83
-25 -285 278 c-156 153 -299 286 -317 296 -40 21 -92 22 -135 0z m1765 -788
c377 -49 599 -148 1073 -476 168 -116 340 -234 382 -263 43 -28 77 -53 77 -56
0 -5 -465 -326 -694 -480 -62 -41 -142 -91 -178 -110 l-67 -35 -151 151 -151
151 31 67 c88 184 77 402 -31 584 -45 76 -149 179 -228 225 -178 103 -394 113
-576 26 l-67 -31 -95 95 -95 95 94 22 c214 50 460 63 676 35z m-953 -324 l148
-148 -31 -65 c-89 -187 -78 -402 31 -586 42 -72 148 -178 220 -220 182 -108
400 -119 584 -31 l67 31 95 -95 95 -95 -94 -22 c-310 -72 -660 -64 -964 25
-181 52 -358 131 -500 223 -151 97 -735 504 -735 512 0 12 729 514 830 571 47
26 90 48 95 48 6 1 77 -66 159 -148z m848 -193 c32 -17 70 -45 84 -61 61 -73
95 -183 79 -263 l-7 -37 -189 189 c-104 104 -189 192 -189 196 0 11 42 17 104
12 40 -3 76 -14 118 -36z m-95 -591 c-12 -5 -50 -6 -85 -3 -73 6 -168 52 -208
99 -61 73 -95 183 -79 263 l7 37 194 -194 c178 -178 192 -194 171 -202z"/>
</g>
</svg>
