<svg aria-hidden="true" style="position: absolute; width: 0; height: 0; overflow: hidden;" version="1.1" xmlns="http://www.w3.org/2000/svg" xmlns:xlink="http://www.w3.org/1999/xlink">
<defs>
<symbol id="icon-search" viewBox="0 0 32 32">
<path d="M14.667 2.667c-3.889 0-6.973 1.506-8.995 3.781s-3.005 5.256-3.005 8.219c0 2.963 0.983 5.944 3.005 8.219s5.106 3.781 8.995 3.781c3.098 0 5.501-1.128 7.448-2.667l4.943 4.943c0.241 0.241 0.575 0.39 0.943 0.39s0.701-0.149 0.943-0.39v0c0.241-0.241 0.39-0.575 0.39-0.943s-0.149-0.701-0.39-0.943l-4.87-4.87c1.667-2.18 2.594-4.827 2.594-7.521 0-2.963-0.983-5.944-3.005-8.219s-5.106-3.781-8.995-3.781zM14.667 5.333c3.222 0 5.472 1.16 7.005 2.885s2.328 4.078 2.328 6.448c0 2.37-0.795 4.723-2.328 6.448-0.052 0.058-0.14 0.084-0.193 0.141-0.034-0.003-0.073-0.005-0.112-0.005s-0.078 0.002-0.117 0.005l0.005-0c-0.002 0.024-0.002 0.052-0.002 0.081s0.001 0.057 0.003 0.085l-0-0.004c-1.52 1.521-3.6 2.583-6.589 2.583-3.222 0-5.472-1.16-7.005-2.885s-2.328-4.078-2.328-6.448c0-2.37 0.795-4.723 2.328-6.448s3.783-2.885 7.005-2.885z"></path>
</symbol>
<symbol id="icon-film" viewBox="0 0 32 32">
<path stroke-linejoin="round" stroke-linecap="round" stroke-miterlimit="4" stroke-width="2.6667" d="M26.427 2.667h-20.853c-1.605 0-2.907 1.301-2.907 2.907v20.853c0 1.605 1.301 2.907 2.907 2.907h20.853c1.605 0 2.907-1.301 2.907-2.907v-20.853c0-1.605-1.301-2.907-2.907-2.907z"></path>
<path stroke-linejoin="round" stroke-linecap="round" stroke-miterlimit="4" stroke-width="2.6667" d="M9.333 2.667v26.667"></path>
<path stroke-linejoin="round" stroke-linecap="round" stroke-miterlimit="4" stroke-width="2.6667" d="M22.667 2.667v26.667"></path>
<path stroke-linejoin="round" stroke-linecap="round" stroke-miterlimit="4" stroke-width="2.6667" d="M2.667 16h26.667"></path>
<path stroke-linejoin="round" stroke-linecap="round" stroke-miterlimit="4" stroke-width="2.6667" d="M2.667 9.333h6.667"></path>
<path stroke-linejoin="round" stroke-linecap="round" stroke-miterlimit="4" stroke-width="2.6667" d="M2.667 22.667h6.667"></path>
<path stroke-linejoin="round" stroke-linecap="round" stroke-miterlimit="4" stroke-width="2.6667" d="M22.667 22.667h6.667"></path>
<path stroke-linejoin="round" stroke-linecap="round" stroke-miterlimit="4" stroke-width="2.6667" d="M22.667 9.333h6.667"></path>
</symbol>
<symbol id ="close" viewBox="0 0 30 30" >
<path fill="none" d="M8 8L22 22" stroke-width="2"/>
<path fill="none" d="M8 22L22 8" stroke-width="2"/>
</symbol>
</defs>
</svg>
