<svg aria-hidden="true" style="position: absolute; width: 0; height: 0; overflow: hidden;" version="1.1" xmlns="http://www.w3.org/2000/svg" xmlns:xlink="http://www.w3.org/1999/xlink">
<defs>
<symbol id="icon-search" viewBox="0 0 32 32">
<path d="M14.667 2.667c-3.889 0-6.973 1.506-8.995 3.781s-3.005 5.256-3.005 8.219c0 2.963 0.983 5.944 3.005 8.219s5.106 3.781 8.995 3.781c3.098 0 5.501-1.128 7.448-2.667l4.943 4.943c0.241 0.241 0.575 0.39 0.943 0.39s0.701-0.149 0.943-0.39v0c0.241-0.241 0.39-0.575 0.39-0.943s-0.149-0.701-0.39-0.943l-4.87-4.87c1.667-2.18 2.594-4.827 2.594-7.521 0-2.963-0.983-5.944-3.005-8.219s-5.106-3.781-8.995-3.781zM14.667 5.333c3.222 0 5.472 1.16 7.005 2.885s2.328 4.078 2.328 6.448c0 2.37-0.795 4.723-2.328 6.448-0.052 0.058-0.14 0.084-0.193 0.141-0.034-0.003-0.073-0.005-0.112-0.005s-0.078 0.002-0.117 0.005l0.005-0c-0.002 0.024-0.002 0.052-0.002 0.081s0.001 0.057 0.003 0.085l-0-0.004c-1.52 1.521-3.6 2.583-6.589 2.583-3.222 0-5.472-1.16-7.005-2.885s-2.328-4.078-2.328-6.448c0-2.37 0.795-4.723 2.328-6.448s3.783-2.885 7.005-2.885z"></path>
</symbol>
<symbol id="icon-film" viewBox="0 0 32 32">
<path  d="M5.573 1.333c-2.326 0-4.24 1.914-4.24 4.24v20.854c0 2.326 1.914 4.24 4.24 4.24h20.854c2.326 0 4.24-1.914 4.24-4.24v-20.854c0-2.326-1.914-4.24-4.24-4.24h-20.854zM5.573 4h2.427v4h-4v-2.427c0-0.885 0.688-1.573 1.573-1.573zM10.667 4h10.667v10.667h-10.667v-10.667zM24 4h2.427c0.885 0 1.573 0.688 1.573 1.573v2.427h-4v-4zM4 10.667h4v4h-4v-4zM24 10.667h4v4h-4v-4zM4 17.333h4v4h-4v-4zM10.667 17.333h10.667v10.667h-10.667v-10.667zM24 17.333h4v4h-4v-4zM4 24h4v4h-2.427c-0.885 0-1.573-0.688-1.573-1.573v-2.427zM24 24h4v2.427c0 0.885-0.688 1.573-1.573 1.573h-2.427v-4z"></path>
</symbol>
<symbol id ="close" viewBox="0 0 30 30" >
<path fill="none" d="M8 8L22 22" stroke-width="2"/>
<path fill="none" d="M8 22L22 8" stroke-width="2"/>
</symbol>
</defs>
</svg>
